<svg width="25" height="25" viewBox="0 0 25 25" fill="none" xmlns="http://www.w3.org/2000/svg"><g clip-path="url(#clip0)" fill="#000"><path d="M6 8.332V6c0-1.654 1.346-3 3-3s3 1.346 3 3v2c.104 0 .202.024.304.034A4.468 4.468 0 0013.5 5a4.5 4.5 0 00-9 0c0 1.328.586 2.508 1.5 3.332z"/><path d="M19.5 11.5A1.5 1.5 0 0018 13v.25a.25.25 0 01-.5 0V12a1.5 1.5 0 00-3 0v1.25a.25.25 0 01-.5 0V11a1.5 1.5 0 00-3 0v2.25a.25.25 0 01-.5 0V6a1.5 1.5 0 00-3 0v9a.5.5 0 01-.5-.5v-2h-.494c-1.645 0-3.007 1.328-3.006 2.973.005 5.281 3.849 9.027 6.213 9.027H16a5 5 0 005-5V13a1.5 1.5 0 00-1.5-1.5z"/></g><defs><clipPath id="clip0"><path fill="#fff" transform="translate(.5 .5)" d="M0 0h24v24H0z"/></clipPath></defs></svg>