<svg width="116" height="21" viewBox="0 0 116 21" fill="none" xmlns="http://www.w3.org/2000/svg"><g clip-path="url(#clip0)"><path d="M4.388 11.543l-2.537 5.585H0l2.787-5.973a3.956 3.956 0 01-1.58-1.426c-.403-.64-.604-1.502-.604-2.59 0-.76.111-1.426.333-1.997.236-.584.547-1.067.936-1.447.402-.38.866-.666 1.393-.856a4.86 4.86 0 011.664-.285H7.32v14.574h-1.6v-5.585H4.387zM5.72 3.878h-.853a2.5 2.5 0 00-.935.184 2 2 0 00-.812.55c-.235.245-.43.578-.582 1-.138.407-.208.916-.208 1.528 0 .584.063 1.073.187 1.467.14.395.32.714.541.959.236.244.506.42.811.53.32.095.652.142.998.142h.853v-6.36zm17.653 15.268h-1.456v-2.018h-4.492v2.018h-1.456v-3.323h.645a9.434 9.434 0 00.561-1.793 19.56 19.56 0 00.312-2.039c.084-.707.132-1.42.146-2.14.028-.734.042-1.44.042-2.12v-.877h4.866v8.97h.832v3.322zm7.05-2.711a3.985 3.985 0 01-1.144.611c-.43.15-.908.224-1.435.224-1.081 0-1.934-.407-2.558-1.223-.624-.829-.936-2.038-.936-3.628 0-.829.056-1.59.167-2.283.125-.693.312-1.29.561-1.794.264-.516.596-.917.998-1.202.402-.286.88-.428 1.435-.428.43 0 .825.088 1.186.265.36.163.665.435.915.815.25.38.444.877.582 1.488.139.598.208 1.332.208 2.202v.876h-4.367c0 1.169.16 2.052.478 2.65.333.598.825.897 1.477.897.457 0 .86-.075 1.206-.224.36-.163.645-.32.853-.47l.374 1.224zm-15.39-9.58v10.273h-1.601V12.52H11.02v4.607H9.397V6.854h1.623v4.363h2.412V6.854h1.601zm18.655 5.156v5.117h-1.622V6.854h1.622v4.75l2.516-4.75h1.643l-2.6 4.831 2.975 5.443h-1.768l-2.766-5.117zm8.34 5.26c-1.124 0-2.004-.435-2.642-1.305-.638-.883-.956-2.208-.956-3.975 0-.802.076-1.529.228-2.18.167-.653.402-1.204.707-1.652a3.3 3.3 0 011.165-1.06c.471-.258 1.012-.387 1.622-.387.472 0 .853.054 1.144.163.291.095.555.217.79.367l-.228 1.508a3.214 3.214 0 00-.79-.49 2.02 2.02 0 00-.936-.223c-.583 0-1.061.32-1.435.958-.375.638-.562 1.61-.562 2.915 0 1.29.153 2.29.458 2.996.318.693.81 1.04 1.476 1.04.402 0 .749-.062 1.04-.184a3.3 3.3 0 00.728-.448l.374 1.182a3.83 3.83 0 01-.936.57c-.346.137-.762.204-1.247.204zM20.94 8.138h-1.81v.183c0 .544-.014 1.142-.041 1.794a23.847 23.847 0 01-.416 3.934 9.508 9.508 0 01-.52 1.773h2.787V8.14zm6.571-.123c-.499 0-.852.279-1.06.836-.208.544-.34 1.277-.395 2.201h2.682c0-.434-.02-.835-.062-1.202a4.336 4.336 0 00-.208-.979c-.083-.271-.208-.482-.374-.631a.798.798 0 00-.583-.225zm45.592-1.181a32.66 32.66 0 01-.291-1.06c-.07-.34-.14-.68-.208-1.019h-.063c.042.693.063 1.413.063 2.16v10.213h-.915V2.554h1.206l2.516 9.315c.055.19.111.455.166.795.07.326.118.625.146.897h.062c.042-.272.097-.571.167-.897.07-.34.132-.605.187-.795l2.537-9.315h1.165v14.574h-.998V6.916a29.197 29.197 0 01.083-2.16h-.084c-.096.407-.187.767-.27 1.08-.07.312-.145.624-.229.937l-2.225 8.113h-.81l-2.205-8.052zm11.144 9.723c.485 0 .894-.197 1.227-.591.347-.394.617-.87.811-1.427v-2.833h-1.123c-.873 0-1.518.204-1.934.611-.416.408-.624 1.06-.624 1.957 0 .734.146 1.298.437 1.692.305.394.707.591 1.206.591zm2.33.57c-.042-.135-.09-.305-.146-.509a8.12 8.12 0 01-.104-.876c-.25.489-.562.876-.936 1.162-.374.285-.825.428-1.352.428-.707 0-1.282-.259-1.726-.775-.444-.53-.666-1.264-.666-2.201 0-1.101.299-1.93.895-2.487.596-.57 1.462-.856 2.6-.856h1.143V9.729c0-.789-.145-1.36-.437-1.713-.29-.353-.727-.53-1.31-.53-.443 0-.86.102-1.248.306a2.5 2.5 0 00-.956.815l-.27-.917c.207-.272.52-.51.935-.713.43-.218.943-.326 1.54-.326.873 0 1.538.244 1.996.733.471.476.707 1.223.707 2.243v5.605c0 .354.02.713.062 1.08.042.354.097.626.167.816h-.895zm5.813-.57c.666 0 1.2-.387 1.601-1.162.403-.788.603-1.997.603-3.628 0-1.359-.173-2.412-.52-3.16-.346-.747-.824-1.12-1.434-1.12-.236 0-.465.06-.687.183a2.595 2.595 0 00-.603.448 3.77 3.77 0 00-.499.673 5.11 5.11 0 00-.395.774v5.749c.208.42.465.733.77.937.305.204.693.306 1.164.306zm-.062.754c-.402 0-.77-.081-1.103-.244a2.398 2.398 0 01-.769-.653v3.894h-.978V6.854h.853l.083 1.692c.236-.489.548-.924.936-1.304.389-.394.874-.591 1.456-.591.43 0 .818.122 1.165.367.346.244.637.59.873 1.04.236.434.416.964.54 1.589.126.611.188 1.291.188 2.038 0 1.89-.298 3.303-.894 4.24-.596.924-1.38 1.386-2.35 1.386zm6.09-.183h-.978V6.854h.978v4.831l3.515-4.83h.956l-3.452 4.77 3.702 5.503h-1.082l-3.64-5.32v5.32zm6.12-4.974c.027 1.414.228 2.494.603 3.241.374.734.943 1.101 1.705 1.101.347 0 .652-.054.915-.163a2.6 2.6 0 00.666-.387c.208-.15.388-.333.54-.55l.312.774a2.453 2.453 0 01-.603.59 3.09 3.09 0 01-.769.388 2.901 2.901 0 01-1.082.184c-1.109 0-1.927-.47-2.454-1.407-.527-.937-.79-2.249-.79-3.934 0-.842.076-1.59.229-2.242.152-.666.36-1.23.624-1.692.277-.462.603-.808.977-1.04a2.199 2.199 0 011.227-.366c.458 0 .867.115 1.227.346.361.231.659.578.894 1.04.236.462.403 1.04.5 1.732.097.68.104 1.475.02 2.385h-4.741zm2.1-4.708c-.554 0-1.033.34-1.435 1.019-.388.666-.603 1.644-.644 2.935h3.805c.083-1.373-.055-2.371-.416-2.996-.346-.64-.783-.958-1.31-.958zm6.95.204v9.478h-.978V7.649h-2.433v-.795H116v.795h-2.412z" fill="#000"/><path d="M67.89.796H47.61v19.878h20.28V.796z" fill="url(#paint0_linear)"/><path d="M47.182 18.777v-6.189l5.889-7.01 3.365 1.65-.841 4.123 6.31-8.658 4.207 1.649-1.262 5.36 3.365-2.886v4.948l-5.048 4.947-3.365-1.649 1.262-4.948-5.89 8.659-4.206-1.65 1.262-4.947-5.048 6.601z" fill="url(#paint1_linear)"/></g><defs><linearGradient id="paint0_linear" x1="57.75" y1="-3.838" x2="57.75" y2="20.674" gradientUnits="userSpaceOnUse"><stop stop-color="#3E3F3A"/><stop offset="1"/></linearGradient><linearGradient id="paint1_linear" x1="57.698" y1="-1.135" x2="57.698" y2="20.304" gradientUnits="userSpaceOnUse"><stop stop-color="#FFE55B"/><stop offset="1" stop-color="#FC0"/></linearGradient><clipPath id="clip0"><path fill="#fff" transform="translate(0 .82)" d="M0 0h116v19.91H0z"/></clipPath></defs></svg>