<svg width="56" height="56" viewBox="0 0 56 56" fill="none" xmlns="http://www.w3.org/2000/svg"><path d="M42.294 33.294a7.067 7.067 0 00-7.059 7.059 7.067 7.067 0 007.06 7.059 7.066 7.066 0 007.058-7.06 7.067 7.067 0 00-7.059-7.058zm0 10.588a3.533 3.533 0 01-3.53-3.53 3.533 3.533 0 013.53-3.528 3.533 3.533 0 013.53 3.529 3.533 3.533 0 01-3.53 3.53zM18.176 33.294a7.067 7.067 0 00-7.059 7.059 7.067 7.067 0 007.059 7.059 7.067 7.067 0 007.059-7.06 7.067 7.067 0 00-7.059-7.058zm0 10.588a3.533 3.533 0 01-3.53-3.53 3.533 3.533 0 013.53-3.528 3.533 3.533 0 013.53 3.529 3.533 3.533 0 01-3.53 3.53zM47.047 13.09c-.3-.596-.91-.972-1.577-.972h-9.294v3.53h8.206l4.805 9.557 3.154-1.586-5.294-10.53z" fill="#06E9FB"/><path d="M37 38.647H23.648v3.53H37v-3.53zm-24.118 0H6.765a1.765 1.765 0 100 3.53h6.117a1.765 1.765 0 100-3.53zM55.63 27.859l-3.472-4.47a1.762 1.762 0 00-1.393-.683H37.94V10.353c0-.975-.79-1.765-1.765-1.765H6.765a1.765 1.765 0 100 3.53h27.647V24.47c0 .974.79 1.764 1.764 1.764H49.9l2.57 3.31v9.102h-4.882a1.765 1.765 0 100 3.53h6.647c.975 0 1.765-.79 1.765-1.765v-11.47c0-.393-.13-.774-.37-1.083zm-42.866 1.847H4.646a1.765 1.765 0 100 3.53h8.118a1.764 1.764 0 100-3.53zm4.059-6.941H1.765a1.765 1.765 0 000 3.53h15.059a1.765 1.765 0 100-3.53z" fill="#06E9FB"/><path d="M19.705 15.823H4.646a1.764 1.764 0 100 3.53h15.06a1.765 1.765 0 100-3.53z" fill="#06E9FB"/></svg>