<svg width="56" height="56" viewBox="0 0 56 56" fill="none" xmlns="http://www.w3.org/2000/svg"><g clip-path="url(#clip0)"><path d="M50.276 9.068L28.84.168a2.187 2.187 0 00-1.678 0l-21.437 8.9a2.188 2.188 0 00-1.349 2.02v10.82c0 14.898 9.005 28.3 22.798 33.93.53.216 1.124.216 1.654 0a36.634 36.634 0 0022.798-33.93v-10.82c0-.884-.532-1.681-1.349-2.02zm-3.026 12.84c0 12.665-7.438 24.324-19.25 29.528-11.497-5.065-19.25-16.52-19.25-29.528v-9.36L28 4.557l19.25 7.993v9.359zm-21.668 7.373l9.402-9.402a2.187 2.187 0 113.094 3.094l-10.95 10.949a2.187 2.187 0 01-3.093 0l-6.113-6.114a2.187 2.187 0 113.093-3.093l4.567 4.566z" fill="#06E9FB"/></g><defs><clipPath id="clip0"><path fill="#fff" d="M0 0h56v56H0z"/></clipPath></defs></svg>