<svg width="56" height="56" viewBox="0 0 56 56" fill="none" xmlns="http://www.w3.org/2000/svg"><path d="M53.81 15.428c1.207 0 2.187-.98 2.187-2.187v-2.297C55.997 4.91 51.087 0 45.052 0c0 0-34.284.005-34.369.015-2.886.1-5.658 1.34-7.656 3.433C.979 5.594-.09 8.385.01 11.322.007 11.378.005 42.87.005 42.87.005 50.109 5.895 56 13.136 56h31.916c6.035 0 10.945-4.91 10.945-10.944V28.45c0-6.035-4.91-10.944-10.944-10.944H10.94a6.55 6.55 0 01-6.555-6.249A6.447 6.447 0 016.19 6.468a6.768 6.768 0 014.874-2.085l33.987-.009a6.577 6.577 0 016.57 6.57v2.297c0 1.208.98 2.187 2.188 2.187zM10.94 21.88h34.112a6.577 6.577 0 016.57 6.57v16.606a6.577 6.577 0 01-6.57 6.57H13.136c-4.828 0-8.757-3.929-8.757-8.757V19.702a10.907 10.907 0 006.562 2.178zm36.308 14.873a2.734 2.734 0 01-2.734 2.734c-3.627-.144-3.626-5.325 0-5.468a2.734 2.734 0 012.734 2.734zm0-25.809c0-1.208-.98-2.187-2.187-2.187H10.94c-2.902.116-2.9 4.26 0 4.374h34.12a2.187 2.187 0 002.187-2.187z" fill="#06E9FB"/></svg>