<svg width="25" height="25" viewBox="0 0 25 25" fill="none" xmlns="http://www.w3.org/2000/svg">
<g clip-path="url(#clip0)">
<path d="M6 8.33199V5.99999C6 4.34599 7.346 2.99999 9 2.99999C10.654 2.99999 12 4.34599 12 5.99999V7.99999C12.104 7.99999 12.202 8.02399 12.304 8.03399C13.04 7.23299 13.5 6.17399 13.5 4.99999C13.5 2.51499 11.485 0.499992 9 0.499992C6.515 0.499992 4.5 2.51499 4.5 4.99999C4.5 6.32799 5.086 7.50799 6 8.33199Z" fill="black"/>
<path d="M19.5 11.5C18.672 11.5 18 12.172 18 13V13.25C18 13.388 17.888 13.5 17.75 13.5C17.612 13.5 17.5 13.388 17.5 13.25V12C17.5 11.172 16.828 10.5 16 10.5C15.172 10.5 14.5 11.172 14.5 12V13.25C14.5 13.388 14.388 13.5 14.25 13.5C14.112 13.5 14 13.388 14 13.25V11C14 10.172 13.328 9.5 12.5 9.5C11.672 9.5 11 10.172 11 11V13.25C11 13.388 10.888 13.5 10.75 13.5C10.612 13.5 10.5 13.388 10.5 13.25V6C10.5 5.172 9.828 4.5 9 4.5C8.172 4.5 7.5 5.172 7.5 6V15C7.224 15 7 14.776 7 14.5V12.5H6.506C4.861 12.5 3.499 13.828 3.5 15.473C3.505 20.754 7.349 24.5 9.713 24.5H16C18.761 24.5 21 22.261 21 19.5V13C21 12.172 20.328 11.5 19.5 11.5Z" fill="black"/>
</g>
<defs>
<clipPath id="clip0">
<rect width="24" height="24" fill="white" transform="translate(0.5 0.5)"/>
</clipPath>
</defs>
</svg>
