<svg width="116" height="21" viewBox="0 0 116 21" fill="none" xmlns="http://www.w3.org/2000/svg">
<g clip-path="url(#clip0)">
<path d="M4.3881 11.5427L1.85091 17.1279H0L2.78675 11.1554C2.13512 10.8293 1.60828 10.3537 1.20621 9.72857C0.804139 9.08988 0.603105 8.22698 0.603105 7.13985C0.603105 6.37885 0.714019 5.71298 0.935851 5.14224C1.17154 4.55791 1.4835 4.0755 1.87171 3.695C2.27377 3.31451 2.73823 3.02913 3.26508 2.83888C3.79193 2.64864 4.3465 2.55351 4.92881 2.55351H7.32043V17.1279H5.71909V11.5427H4.3881ZM5.71909 3.87846H4.86643C4.54754 3.87846 4.23559 3.93961 3.93058 4.06191C3.62556 4.17062 3.3552 4.35408 3.1195 4.61226C2.8838 4.85687 2.6897 5.18981 2.53719 5.61107C2.39855 6.01875 2.32922 6.52833 2.32922 7.13985C2.32922 7.72418 2.39162 8.21339 2.5164 8.60747C2.65505 9.00155 2.83528 9.3209 3.05712 9.5655C3.29281 9.81011 3.56316 9.98677 3.86818 10.0955C4.18707 10.1906 4.51982 10.2382 4.86643 10.2382H5.71909V3.87846Z" fill="black"/>
<path d="M23.3728 19.1458H21.9171V17.1279H17.4249V19.1458H15.9692V15.8233H16.6139C16.8496 15.2797 17.0367 14.6818 17.1754 14.0296C17.314 13.3637 17.418 12.6843 17.4874 11.9912C17.5706 11.2845 17.6191 10.5711 17.633 9.85088C17.6607 9.11706 17.6746 8.41043 17.6746 7.73097V6.85448H22.5409V15.8233H23.3728V19.1458ZM30.4229 16.4348C30.0901 16.693 29.7089 16.8968 29.2791 17.0463C28.8493 17.1958 28.371 17.2705 27.8442 17.2705C26.7627 17.2705 25.91 16.8628 25.2862 16.0475C24.6622 15.2185 24.3503 14.0091 24.3503 12.4192C24.3503 11.5903 24.4057 10.8293 24.5167 10.1363C24.6415 9.4432 24.8286 8.84528 25.0782 8.34248C25.3416 7.8261 25.6744 7.42522 26.0764 7.13985C26.4785 6.85448 26.9568 6.71178 27.5114 6.71178C27.9412 6.71178 28.3364 6.80012 28.6968 6.97678C29.0572 7.13985 29.3623 7.41163 29.6118 7.79213C29.8614 8.17262 30.0555 8.66862 30.1941 9.28013C30.3328 9.87806 30.4022 10.6119 30.4022 11.4816V12.3581H26.0348C26.0348 13.5267 26.1943 14.41 26.5131 15.0079C26.8459 15.6059 27.3381 15.9049 27.9897 15.9049C28.4473 15.9049 28.8493 15.8301 29.1959 15.6806C29.5564 15.5175 29.8406 15.3613 30.0486 15.2118L30.4229 16.4348ZM15.0333 6.85448V17.1279H13.432V12.5212H11.0196V17.1279H9.39746V6.85448H11.0196V11.2166H13.432V6.85448H15.0333ZM33.688 12.0115V17.1279H32.0659V6.85448H33.688V11.6039L36.2044 6.85448H37.8474L35.2477 11.6854L38.2217 17.1279H36.4539L33.688 12.0115ZM42.0275 17.2705C40.9044 17.2705 40.0241 16.8356 39.3863 15.966C38.7485 15.0826 38.4296 13.7578 38.4296 11.9912C38.4296 11.1894 38.5059 10.4624 38.6584 9.81011C38.8248 9.15783 39.0604 8.60748 39.3655 8.15903C39.6844 7.697 40.0726 7.34369 40.5301 7.09908C41.0015 6.84089 41.5422 6.71178 42.1522 6.71178C42.6237 6.71178 43.0049 6.76614 43.296 6.87485C43.5872 6.96998 43.8506 7.09228 44.0864 7.24176L43.8576 8.75016C43.6357 8.55991 43.3723 8.39684 43.0673 8.26095C42.7762 8.11147 42.4642 8.03673 42.1315 8.03673C41.5492 8.03673 41.0708 8.35607 40.6965 8.99476C40.3221 9.63345 40.135 10.6051 40.135 11.9096C40.135 13.2006 40.2875 14.1994 40.5925 14.9061C40.9114 15.5991 41.4035 15.9455 42.0691 15.9455C42.4712 15.9455 42.8177 15.8844 43.1089 15.7621C43.4001 15.6262 43.6427 15.4767 43.8367 15.3137L44.2112 16.496C43.9339 16.7269 43.6218 16.9172 43.2753 17.0667C42.9286 17.2026 42.5127 17.2705 42.0275 17.2705ZM20.9397 8.13865H19.1303V8.3221C19.1303 8.86567 19.1164 9.46358 19.0887 10.1159C19.0749 10.7546 19.0333 11.4068 18.9639 12.0727C18.8946 12.7385 18.7976 13.3977 18.6727 14.0499C18.548 14.6886 18.3747 15.2797 18.1529 15.8233H20.9397V8.13865ZM27.5114 8.01634C27.0123 8.01634 26.6588 8.29493 26.4507 8.85207C26.2428 9.39564 26.1111 10.1295 26.0557 11.0535H28.7384C28.7384 10.6187 28.7176 10.2178 28.676 9.85088C28.6344 9.47038 28.565 9.14424 28.468 8.87246C28.3849 8.60068 28.2601 8.39005 28.0937 8.24057C27.9412 8.09109 27.747 8.01634 27.5114 8.01634Z" fill="black"/>
<path d="M73.1027 6.83408C72.9918 6.45359 72.8947 6.10027 72.8115 5.77413C72.7422 5.4344 72.6729 5.09468 72.6036 4.75495H72.5412C72.5827 5.44799 72.6036 6.16822 72.6036 6.91562V17.1279H71.6885V2.55351H72.8947L75.4111 11.8689C75.4665 12.0591 75.522 12.3241 75.5775 12.6638C75.6468 12.99 75.6953 13.289 75.7231 13.5607H75.7854C75.8271 13.289 75.8825 12.99 75.9518 12.6638C76.0211 12.3241 76.0835 12.0591 76.139 11.8689L78.6762 2.55351H79.8408V17.1279H78.8425V6.91562C78.8425 6.5623 78.8495 6.20898 78.8634 5.85566C78.8773 5.48876 78.898 5.12185 78.9258 4.75495H78.8425C78.7455 5.16262 78.6554 5.52274 78.5722 5.83529C78.5028 6.14784 78.4266 6.46039 78.3434 6.77294L76.1182 14.8856H75.3071L73.1027 6.83408Z" fill="black"/>
<path d="M84.2471 16.5571C84.7323 16.5571 85.1413 16.3601 85.4741 15.966C85.8207 15.5719 86.0911 15.0963 86.2851 14.5391V11.7058H85.1621C84.2887 11.7058 83.644 11.9096 83.2281 12.3173C82.8121 12.725 82.6041 13.3772 82.6041 14.2742C82.6041 15.0079 82.7497 15.5719 83.0409 15.966C83.3458 16.3601 83.748 16.5571 84.2471 16.5571ZM86.5763 17.1279C86.5347 16.992 86.4862 16.822 86.4308 16.6183C86.3891 16.4009 86.3545 16.1086 86.3268 15.7418C86.0772 16.2309 85.7652 16.6183 85.3909 16.9036C85.0166 17.189 84.566 17.3317 84.0391 17.3317C83.3321 17.3317 82.7566 17.0735 82.3129 16.5571C81.8694 16.0271 81.6475 15.2933 81.6475 14.3556C81.6475 13.2549 81.9456 12.426 82.5417 11.8689C83.1379 11.2981 84.0044 11.0127 85.1413 11.0127H86.2851V9.72857C86.2851 8.94041 86.1396 8.36966 85.8484 8.01635C85.5573 7.66303 85.1206 7.48637 84.5382 7.48637C84.0946 7.48637 83.6786 7.58828 83.2904 7.79212C82.9023 7.98237 82.5833 8.25415 82.3338 8.60747L82.0634 7.69021C82.2714 7.41842 82.5833 7.18062 82.9993 6.97678C83.4291 6.75936 83.942 6.65064 84.5382 6.65064C85.4117 6.65064 86.0772 6.89525 86.5347 7.38445C87.0061 7.86007 87.2418 8.60747 87.2418 9.62666V15.2321C87.2418 15.5855 87.2626 15.9455 87.3042 16.3125C87.3458 16.6658 87.4013 16.9376 87.4706 17.1279H86.5763Z" fill="black"/>
<path d="M92.3901 16.5571C93.0556 16.5571 93.5894 16.1698 93.9914 15.3952C94.3935 14.6071 94.5945 13.3977 94.5945 11.767C94.5945 10.408 94.4212 9.35487 94.0747 8.60747C93.728 7.86007 93.2497 7.48637 92.6397 7.48637C92.4039 7.48637 92.1752 7.54752 91.9534 7.66982C91.7455 7.77853 91.5443 7.92801 91.3503 8.11826C91.17 8.30851 91.0036 8.53273 90.8512 8.79093C90.6987 9.03553 90.5669 9.29373 90.456 9.5655V15.3137C90.6639 15.7349 90.9205 16.0475 91.2255 16.2514C91.5306 16.4552 91.9187 16.5571 92.3901 16.5571ZM92.3277 17.3113C91.9256 17.3113 91.5582 17.2297 91.2255 17.0667C90.9066 16.89 90.6501 16.6727 90.456 16.4144V20.3077H89.4785V6.85448H90.3313L90.4144 8.54632C90.6501 8.05711 90.9621 7.62226 91.3503 7.24177C91.7385 6.84768 92.2238 6.65064 92.806 6.65064C93.2358 6.65064 93.624 6.77294 93.9707 7.01755C94.3172 7.26214 94.6084 7.60867 94.8442 8.05711C95.0798 8.49197 95.2601 9.02194 95.3849 9.64703C95.5096 10.2585 95.572 10.938 95.572 11.6854C95.572 13.5742 95.274 14.9876 94.6778 15.9252C94.0816 16.8492 93.2982 17.3113 92.3277 17.3113Z" fill="black"/>
<path d="M98.4179 17.1279H97.4404V6.85448H98.4179V11.6854L101.933 6.85448H102.889L99.437 11.6242L103.139 17.1279H102.057L98.4179 11.8077V17.1279Z" fill="black"/>
<path d="M104.538 12.1542C104.565 13.5675 104.766 14.6479 105.141 15.3952C105.515 16.1291 106.084 16.496 106.846 16.496C107.193 16.496 107.498 16.4416 107.761 16.3329C108.025 16.2242 108.246 16.095 108.427 15.9455C108.635 15.7962 108.815 15.6126 108.967 15.3952L109.279 16.1698C109.113 16.4009 108.912 16.5979 108.676 16.7609C108.468 16.9104 108.212 17.0395 107.907 17.1482C107.602 17.2705 107.241 17.3317 106.825 17.3317C105.716 17.3317 104.898 16.8628 104.371 15.9252C103.844 14.9876 103.581 13.6762 103.581 11.9912C103.581 11.1486 103.657 10.4012 103.81 9.74896C103.962 9.08309 104.17 8.51915 104.434 8.05711C104.711 7.59508 105.037 7.24855 105.411 7.01755C105.785 6.77294 106.195 6.65064 106.638 6.65064C107.096 6.65064 107.505 6.76614 107.865 6.99716C108.226 7.22818 108.524 7.57469 108.759 8.03673C108.995 8.49876 109.162 9.0763 109.259 9.76934C109.356 10.4488 109.363 11.2438 109.279 12.1542H104.538ZM106.638 7.4456C106.084 7.4456 105.605 7.78533 105.203 8.46479C104.815 9.13066 104.6 10.1091 104.559 11.4H108.364C108.447 10.0275 108.309 9.02873 107.948 8.40363C107.602 7.76494 107.165 7.4456 106.638 7.4456Z" fill="black"/>
<path d="M113.588 7.64944V17.1279H112.61V7.64944H110.177V6.85448H116V7.64944H113.588Z" fill="black"/>
<path d="M67.8903 0.795891H47.6094V20.674H67.8903V0.795891Z" fill="url(#paint0_linear)"/>
<path d="M47.1816 18.7773V12.5882L53.071 5.57883L56.4363 7.22809L55.5949 11.3512L61.905 2.69264L66.1116 4.34189L64.8496 9.70197L68.2149 6.81577V11.7636L63.167 16.7113L59.8017 15.0621L61.0637 10.1143L55.1743 18.7728L50.9676 17.1236L52.2296 12.1758L47.1816 18.7773Z" fill="url(#paint1_linear)"/>
</g>
<defs>
<linearGradient id="paint0_linear" x1="57.7499" y1="-3.8377" x2="57.7499" y2="20.674" gradientUnits="userSpaceOnUse">
<stop stop-color="#3E3F3A"/>
<stop offset="1"/>
</linearGradient>
<linearGradient id="paint1_linear" x1="57.6983" y1="-1.13485" x2="57.6983" y2="20.3042" gradientUnits="userSpaceOnUse">
<stop stop-color="#FFE55B"/>
<stop offset="1" stop-color="#FFCC00"/>
</linearGradient>
<clipPath id="clip0">
<rect width="116" height="19.9104" fill="white" transform="translate(0 0.820892)"/>
</clipPath>
</defs>
</svg>
