<svg width="56" height="56" viewBox="0 0 56 56" fill="none" xmlns="http://www.w3.org/2000/svg">
<path d="M53.8095 15.4279C55.0175 15.4279 55.9967 14.4487 55.9967 13.2407V10.9442C55.9967 4.90955 51.0871 0 45.0524 0C45.0524 0 10.7676 0.00513986 10.683 0.0150915C7.79718 0.11592 5.02504 1.3543 3.02684 3.44808C0.97866 5.59414 -0.0891187 8.38541 0.011382 11.3222C0.00722635 11.3779 0.00503918 42.8686 0.00503918 42.8686C0.00503918 50.1093 5.89576 56 13.1364 56H45.0525C51.0872 56 55.9967 51.0905 55.9967 45.0558V28.4499C55.9967 22.4153 51.0872 17.5057 45.0525 17.5057H10.9408C7.42919 17.5057 4.55021 14.761 4.3865 11.2572C4.30328 9.4755 4.94423 7.77475 6.19114 6.46813C7.45609 5.14271 9.23262 4.38266 11.065 4.38266C11.1297 4.38266 45.0523 4.37435 45.0523 4.37435C48.6749 4.37435 51.6222 7.32157 51.6222 10.9442V13.2407C51.6224 14.4487 52.6016 15.4279 53.8095 15.4279ZM10.9408 21.8801H45.0524C48.675 21.8801 51.6223 24.8273 51.6223 28.4499V45.0558C51.6223 48.6784 48.675 51.6257 45.0524 51.6257H13.1364C8.30777 51.6257 4.37939 47.6973 4.37939 42.8686V19.7017C6.20874 21.072 8.48176 21.8801 10.9408 21.8801ZM47.248 36.7529C47.248 38.2628 46.024 39.4868 44.514 39.4868C40.8875 39.3428 40.8885 34.1624 44.514 34.0189C46.024 34.0189 47.248 35.2429 47.248 36.7529ZM47.248 10.9442C47.248 9.73621 46.2688 8.75701 45.0608 8.75701H10.9409C8.03897 8.8725 8.04116 13.0169 10.9409 13.1314H45.0608C46.2687 13.1314 47.248 12.1522 47.248 10.9442Z" fill="#06E9FB"/>
</svg>
