<svg width="56" height="56" viewBox="0 0 56 56" fill="none" xmlns="http://www.w3.org/2000/svg">
<path d="M28.0002 0C12.5373 0 0.00195312 12.5371 0.00195312 28C0.00195312 43.4629 12.5373 56 28.0002 56C43.4631 56 55.9984 43.4611 55.9984 28C55.9984 12.5371 43.4649 0 28.0002 0ZM28.0002 50.6085C15.5331 50.6085 5.39348 40.467 5.39348 28C5.39348 15.533 15.5331 5.39153 28.0002 5.39153C40.4672 5.39153 50.6068 15.533 50.6068 28C50.6068 40.4688 40.4672 50.6085 28.0002 50.6085Z" fill="#06E9FB"/>
<path d="M39.8087 26.2028H31.8256C31.4069 25.3096 30.688 24.5925 29.7966 24.1738V11.0311C29.7966 10.039 28.9951 9.23389 27.9995 9.23389C27.0056 9.23389 26.2023 10.039 26.2023 11.0311V24.1738C24.7627 24.8513 23.7617 26.3035 23.7617 28C23.7617 30.3417 25.6595 32.2395 27.9995 32.2395C29.696 32.2395 31.1481 31.2349 31.8256 29.7972H39.8087C40.8025 29.7972 41.6059 28.992 41.6059 28C41.6059 27.008 40.8025 26.2028 39.8087 26.2028Z" fill="#06E9FB"/>
</svg>
