<svg width="56" height="56" viewBox="0 0 56 56" fill="none" xmlns="http://www.w3.org/2000/svg"><path d="M28 0C12.537 0 .002 12.537.002 28S12.537 56 28 56c15.463 0 27.998-12.539 27.998-28C55.998 12.537 43.465 0 28 0zm0 50.608C15.533 50.608 5.393 40.468 5.393 28S15.533 5.392 28 5.392c12.467 0 22.607 10.141 22.607 22.608 0 12.469-10.14 22.608-22.607 22.608z" fill="#000"/><path d="M39.809 26.203h-7.983a4.223 4.223 0 00-2.03-2.03V11.032a1.797 1.797 0 10-3.594 0v13.143A4.227 4.227 0 0023.762 28 4.239 4.239 0 0028 32.24a4.231 4.231 0 003.826-2.443h7.983a1.797 1.797 0 100-3.594z" fill="#000"/></svg>