<svg width="28" height="28" viewBox="0 0 28 28" fill="none" xmlns="http://www.w3.org/2000/svg"><path d="M24.578 19.321a.823.823 0 00.793-.612l2.602-9.8a.822.822 0 00-.743-1.03L4.78 6.492l-.61-3.748a.82.82 0 00-.435-.598l-2.54-1.3a.82.82 0 00-.748 1.46l2.171 1.111 2.45 15.08-.412 2.6a3.279 3.279 0 00.553 6.51c1.671 0 3.053-1.286 3.248-2.872h11.2c.195 1.586 1.577 2.872 3.248 2.872a3.282 3.282 0 003.273-3.28 3.272 3.272 0 00-6.298-1.233H8.235a3.251 3.251 0 00-1.94-1.848L6.6 19.32h17.979zm-1.673 3.368a1.635 1.635 0 010 3.268 1.635 1.635 0 010-3.268zM6.841 24.323c0 .901-.732 1.634-1.632 1.634a1.635 1.635 0 010-3.268c.9 0 1.632.733 1.632 1.634zM5.05 8.155l21.08 1.303-2.183 8.222H6.597L5.048 8.155z" fill="#fff"/></svg>