<svg width="244" height="61" viewBox="0 0 244 61" fill="none" xmlns="http://www.w3.org/2000/svg"><path d="M173.371 2.276H70.901l-7.853 8.376H22.483L8.791 18.37 1.634 50.697l10.414 7.108h210.918l12.266-7.108 7.156-32.34-8.986-7.718h-52.33l-7.701-8.364z" fill="#000"/><path d="M223.206 58.808H11.764L.556 51.158l7.407-33.467 14.28-8.053h40.402l7.854-8.376h103.275l7.69 8.376h52.264l9.717 8.34-7.386 33.388-12.853 7.442zM12.32 56.804h210.395l11.678-6.763 6.927-31.279-8.256-7.097h-52.395l-7.69-8.375H71.294l-7.854 8.375H22.712L9.619 19.04 2.712 50.237l9.608 6.567z" fill="#06E9FB"/><path d="M78.059 15.778l-.099-2.327-1.187 2.327h-.523l-.566-2.396-.752 2.396h-.86l1.133-3.629h.925l.545 2.304 1.177-2.304h.904l.163 3.63h-.86zm5.37-3.64l.632 3.629h-.915l-.088-.807h-1.045l-.349.807h-.893l1.743-3.63h.915zm-.6.933l-.598 1.394h.762l-.163-1.394zm3.312 2.707l.501-3.629h2.277l-.098.726h-1.394l-.404 2.903h-.882zm6.743-3.64l.632 3.629H92.6l-.087-.807h-1.046l-.349.807h-.893l1.743-3.63h.915zm-.6.933l-.598 1.394h.762l-.163-1.394zm4.499-.288c-.163 0-.315.023-.468.07a2.081 2.081 0 00-.468.207l.141-.807c.153-.058.305-.092.48-.127.174-.023.359-.046.577-.046.076 0 .152 0 .24.012.087.011.174.034.26.057.088.023.164.058.251.104a.716.716 0 01.207.161c.066.07.11.139.142.23a.924.924 0 01.055.312c0 .127-.022.242-.055.334a.788.788 0 01-.152.265.96.96 0 01-.23.196 1.182 1.182 0 01-.272.126.863.863 0 01.447.288.81.81 0 01.153.473c0 .138-.022.265-.066.38a1.009 1.009 0 01-.436.518 1.44 1.44 0 01-.326.15c-.12.035-.24.07-.37.092-.131.023-.262.023-.404.023-.12 0-.228-.011-.337-.034a8.915 8.915 0 01-.305-.07c-.098-.034-.185-.057-.262-.103a.821.821 0 01-.196-.115l.12-.737c.098.069.185.115.283.16.087.047.174.081.262.105.087.023.152.046.228.057.066.012.131.023.186.023.108 0 .206-.011.294-.023a.682.682 0 00.228-.08.339.339 0 00.142-.139.46.46 0 00.01-.415.287.287 0 00-.119-.138.727.727 0 00-.207-.08 2.404 2.404 0 00-.316-.024h-.228l.087-.645h.38c.11 0 .197-.011.284-.034a.526.526 0 00.196-.092.32.32 0 00.11-.139.386.386 0 00.032-.16c0-.14-.044-.231-.142-.289-.109-.011-.25-.046-.436-.046zm3.508 2.995l.511-3.629h.883l-.305 2.19 1.982-2.19h.806l-.512 3.63h-.871l.305-2.19-1.983 2.19h-.816zm7.287-3.64l-.196 1.394h1.623l.196-1.394h.883l-.523 3.629h-.872l.207-1.463h-1.623l-.207 1.463h-.871l.512-3.63h.871zm8.29 1.44h1.35a.922.922 0 00-.087-.311.73.73 0 00-.174-.23.703.703 0 00-.251-.15.79.79 0 00-.294-.058 2.1 2.1 0 00-.599.092c-.196.07-.392.173-.599.323l.153-.922a1.07 1.07 0 01.239-.104.901.901 0 01.251-.069c.087-.023.174-.034.272-.046.098-.011.207-.011.327-.011a1.954 1.954 0 01.849.184c.131.058.24.138.349.23.109.093.196.196.272.323.077.127.142.265.186.415.043.15.065.322.065.507 0 .115-.011.253-.044.403-.021.15-.065.3-.13.46-.066.15-.153.3-.251.45a1.69 1.69 0 01-.403.392 2.098 2.098 0 01-.577.276c-.229.07-.49.104-.785.104a4.19 4.19 0 01-.544-.035 7.84 7.84 0 01-.523-.092l.142-.737c.076.023.163.046.239.069.087.023.174.034.251.046.087.012.163.023.239.023a1.528 1.528 0 00.599-.046c.131-.034.251-.092.36-.173a.908.908 0 00.272-.276.999.999 0 00.164-.38h-1.406l.088-.657zm6.263 2.2l-.414-2.246-1.067 2.246h-.861l1.852-3.686h.544l.807 3.686h-.861zm5.675-3.64l-.087.645h-1.394l-.109.783h1.209l-.087.645h-1.22l-.12.9h1.688l-.087.644h-2.581l.501-3.629h2.287v.012zm1.983 3.64l.512-3.629h.882l-.207 1.348a.606.606 0 00.152-.023.332.332 0 00.142-.092 2.91 2.91 0 00.163-.184c.055-.081.131-.185.207-.311.098-.15.196-.277.273-.38.087-.093.174-.173.272-.231a.738.738 0 01.316-.104c.12-.023.261-.023.425-.023h.163l-.142.818h-.108a.918.918 0 00-.186.023.327.327 0 00-.141.07.764.764 0 00-.131.138 2.341 2.341 0 00-.142.219 1.743 1.743 0 01-.261.346.463.463 0 01-.152.103c-.055.023-.12.046-.186.069a.354.354 0 01.153.058.553.553 0 01.141.103.941.941 0 01.131.162c.044.057.087.138.131.219l.697 1.336h-1.046l-.435-.99a1.806 1.806 0 00-.131-.254.536.536 0 00-.12-.15.353.353 0 00-.131-.07c-.043-.01-.109-.01-.174-.01l-.207 1.474h-.86v-.035zm6.013 0l.403-2.903h-1.111l.109-.726h3.093l-.098.726h-1.111l-.414 2.903h-.871zm4.281 0l.501-3.629h1.285c.229 0 .414.035.566.093a.888.888 0 01.371.241.899.899 0 01.207.357c.043.139.065.277.065.415 0 .15-.022.3-.065.45a1.058 1.058 0 01-.599.668 1.4 1.4 0 01-.567.104h-.708l-.174 1.29h-.882v.011zm1.318-3.11l-.175 1.279h.251c.109 0 .207-.012.294-.035a.738.738 0 00.229-.115.457.457 0 00.141-.208.803.803 0 00.055-.3.586.586 0 00-.175-.438.6.6 0 00-.217-.137.82.82 0 00-.305-.046h-.098zm5.718-.576c.24 0 .458.034.665.115.207.08.381.184.533.322a1.3 1.3 0 01.349.519c.087.207.131.438.131.691 0 .3-.044.565-.142.818a1.954 1.954 0 01-.392.657 1.871 1.871 0 01-.621.438 2.08 2.08 0 01-.817.16c-.131 0-.25-.01-.392-.034-.131-.023-.261-.069-.392-.115a1.862 1.862 0 01-.36-.207 1.107 1.107 0 01-.294-.311 1.714 1.714 0 01-.207-.427 1.744 1.744 0 01-.076-.553c0-.23.022-.437.076-.633.055-.196.12-.369.218-.519.087-.15.196-.288.327-.403.131-.115.261-.207.414-.288.152-.08.305-.138.479-.173.164-.034.327-.057.501-.057zm-.032.818a.851.851 0 00-.458.115c-.131.08-.24.173-.338.288a1.32 1.32 0 00-.196.392 1.45 1.45 0 00-.065.414c0 .116.022.23.054.334a.857.857 0 00.153.277.715.715 0 00.599.265.88.88 0 00.436-.104 1.1 1.1 0 00.326-.265c.088-.115.153-.242.207-.38a1.46 1.46 0 00.077-.438 1.29 1.29 0 00-.055-.368 1.014 1.014 0 00-.163-.288.698.698 0 00-.251-.185.974.974 0 00-.326-.057zm5.152-.772l-.196 1.394h1.623l.196-1.394h.882l-.523 3.629h-.871l.207-1.463h-1.623l-.207 1.463h-.872l.512-3.63h.872zm4.52 3.64l.512-3.629h.883l-.305 2.19 1.982-2.19h.806l-.512 3.63h-.871l.305-2.19-1.983 2.19h-.817zm5.893 0l.512-3.629h.883l-.207 1.348a.606.606 0 00.152-.023.332.332 0 00.142-.092c.043-.046.098-.104.163-.184.055-.081.131-.185.207-.311.098-.15.196-.277.272-.38a1.29 1.29 0 01.273-.231.738.738 0 01.316-.104c.119-.023.261-.023.424-.023h.164l-.142.818h-.109a.917.917 0 00-.185.023.327.327 0 00-.141.07.731.731 0 00-.131.138 2.341 2.341 0 00-.142.219 2.749 2.749 0 01-.13.195c-.044.058-.088.104-.131.15a.456.456 0 01-.153.104c-.054.023-.12.046-.185.069a.354.354 0 01.153.058.553.553 0 01.141.103.991.991 0 01.131.162c.044.057.087.138.131.219l.697 1.336h-1.046l-.436-.99a1.71 1.71 0 00-.13-.254.554.554 0 00-.12-.15.36.36 0 00-.131-.07c-.043-.01-.109-.01-.174-.01l-.207 1.474h-.861v-.035zm5.153 0l.512-3.629h.882l-.305 2.19 1.982-2.19h.807l-.512 3.63h-.872l.305-2.19-1.982 2.19h-.817z" fill="#fff"/><path d="M95.977 27c-.523-.68-1.23-1.026-2.124-1.026H59.954l-.784 4.136h4.314l-1.918 10.15H50.718l2.702-14.286h-8.214L41.72 44.396h27.264l2.702-14.286h5.697l-2.701 14.286h8.213l1.329-7.016h1.274c.349.011.621.138.828.403.153.207.229.438.229.703 0 .08-.011.161-.022.242l-.447 4.044a1.95 1.95 0 00-.032.345c0 .3.087.565.25.795.229.311.567.472.991.472h7.582l.054-.126c-.457-.23-.675-.588-.675-1.095 0-.127.01-.253.043-.391.033-.6.066-1.21.11-1.82.043-.611.087-1.222.108-1.821v-.184c0-.91-.305-1.625-.925-2.143 1.121-.692 1.808-1.66 2.047-2.927l.84-4.458c.043-.242.064-.484.064-.714 0-.61-.185-1.198-.566-1.705zm-8.083 4.47l-.087.437a1.66 1.66 0 01-.566.957c-.305.265-.632.391-.98.391h-1.275l.6-3.133h1.274c.348 0 .62.126.828.391.152.208.228.427.228.692.011.08 0 .16-.022.265zm18.181-5.496h7.298l2.799 18.422h-8.202l-.316-2.074h-5.294l-1.045 2.074h-5.022l9.782-18.422zm.947 12.224l-.61-3.929-1.982 3.929h2.592z" fill="#06E9FB"/><path d="M124.331 25.974h12.396c.904 0 1.612.346 2.124 1.026a2.83 2.83 0 01.566 1.74c0 .23-.021.46-.065.713l-.534 2.823h-8.213l.153-.806a1.134 1.134 0 00-.196-.956c-.207-.266-.48-.392-.828-.392-.36 0-.676.138-.981.403a1.749 1.749 0 00-.555.945l-1.405 7.442a1.265 1.265 0 00-.033.276c0 .254.076.484.229.68.196.265.479.392.828.392.348 0 .675-.127.969-.392.305-.265.49-.576.556-.956l.152-.806h-1.274l.555-2.915h9.488l-1.089 5.737c-.186.956-.665 1.774-1.438 2.454-.774.68-1.612 1.014-2.506 1.014h-12.396c-.904 0-1.612-.346-2.124-1.025a2.75 2.75 0 01-.577-1.717c0-.23.022-.472.076-.726l2.168-11.474c.174-.957.653-1.775 1.427-2.454.773-.68 1.623-1.026 2.527-1.026zm23.365 0h7.299l2.799 18.422h-8.202l-.316-2.074h-5.294l-1.046 2.074h-5.021l9.781-18.422zm.948 12.224l-.61-3.929-1.982 3.929h2.592zm22.233-12.224l2.494 6.302 4.891-6.302h8.202l-3.485 18.422h-8.203l2.005-10.588-4.728 5.438-2.658-5.438-2.004 10.588h-8.213l3.485-18.422h8.214zM223.903 27c-.523-.68-1.231-1.026-2.124-1.026h-15.686l-1.264 6.67h-10.032l.479-2.534h8.617l.784-4.136h-16.829l-3.486 18.422h16.829l.785-4.136h-8.617l.654-3.48h10.032l-1.438 7.627h8.214l1.328-7.016h1.275c.349.012.621.139.828.404.152.207.218.437.218.702 0 .08-.011.162-.022.242l-.447 4.044a2.025 2.025 0 00-.032.346c0 .3.087.564.25.794.229.312.567.473.991.473h7.582l.054-.127c-.457-.23-.675-.587-.675-1.094 0-.127.011-.254.044-.392.032-.6.065-1.21.108-1.82.044-.61.088-1.221.109-1.82v-.185c0-.91-.305-1.624-.926-2.143 1.133-.691 1.809-1.659 2.048-2.926l.839-4.459a4 4 0 00.065-.714 2.733 2.733 0 00-.555-1.716zm-8.083 4.47l-.087.437a1.66 1.66 0 01-.566.957c-.305.265-.632.391-.981.391h-1.274l.599-3.133h1.275c.348 0 .62.126.827.391.153.208.229.427.229.692.011.08 0 .16-.022.265z" fill="#F843D6"/><path d="M41.458 25.974a27.694 27.694 0 01-3.18 2.984c-1.22.956-2.419 1.936-3.639 2.903-.108.081-.207.185-.294.254-.36-.484-.697-.945-1.056-1.417.076-.07.141-.127.207-.185 1.405-1.129 2.8-2.258 4.204-3.375a22.684 22.684 0 011.634-1.175H29.323c.436.46.84.944 1.199 1.463 1.046 1.52 2.124 3.018 3.192 4.527.49.692.98 1.383 1.47 2.086.033.046.066.092.098.127.436-.346.872-.68 1.296-1.026.098-.08.207-.161.316-.23.175-.127.316-.139.403.011.11.173.055.323-.141.473-.447.357-.893.714-1.373 1.094.098.127.175.23.262.346.218.3.228.656.076 1.071-.033.08-.022.196.022.253.577.83 1.154 1.648 1.753 2.466a.311.311 0 00.23.104c.522.023.849.426.75.944-.097.519-.566.991-1.078 1.083-.533.104-.936-.207-.947-.714 0-.023-.011-.046 0-.058.163-.368-.055-.541-.207-.76l-1.536-2.177c-.066-.093-.13-.15-.283-.127-.414.058-.72-.07-.926-.369a6.012 6.012 0 01-.24-.357c-.468.38-.904.737-1.35 1.095-.218.172-.425.172-.49 0-.066-.173.032-.311.195-.45.501-.403 1.002-.795 1.503-1.21-.01-.034-.01-.057-.021-.069l-1.602-2.246c-1.252-1.786-2.538-3.56-3.758-5.38a9.226 9.226 0 01-.99-1.982h-2.964L21.35 40.905a3.434 3.434 0 00-.076.726c0 .657.196 1.221.577 1.716.512.68 1.22 1.026 2.124 1.026h12.407c.904 0 1.732-.334 2.506-1.014.773-.68 1.252-1.498 1.438-2.454l2.832-14.954h-1.7v.023zm-10.882 11.51c-.163.126-.337.126-.435-.012a19.08 19.08 0 01-.545-.772c-.076-.104-.142-.219-.25-.392a8.77 8.77 0 01-.382.358c-.37.31-.762.449-1.165.391-.131-.023-.218.023-.327.115-1.002.807-2.015 1.613-3.007 2.42a.586.586 0 00-.195.276c-.186.6-.741 1.037-1.297 1.037-.544 0-.86-.438-.719-.99a1.387 1.387 0 011.286-1.038.477.477 0 00.24-.092c1.045-.83 2.09-1.67 3.125-2.511a.407.407 0 00.131-.185c.066-.541.392-.967.872-1.313.065-.046.13-.104.217-.173-.26-.357-.522-.714-.773-1.071-.13-.196-.054-.403.185-.53.164-.08.262-.046.338.069.283.426.577.841.893 1.302.752-.6 1.46-1.164 2.179-1.74.327.461.653.933 1.002 1.429-.708.564-1.416 1.129-2.146 1.705.272.368.523.737.784 1.094.033.046.077.104.11.162.086.15.043.334-.12.46z" fill="#06E9FB"/></svg>