<svg width="17" height="16" viewBox="0 0 17 16" fill="none" xmlns="http://www.w3.org/2000/svg"><path d="M1.861 11.807l-.004.008-.003.01-.986 2.9h0a.342.342 0 00.097.367.378.378 0 00.37.082h0l3.094-.944h.001a.252.252 0 00.011-.004h0c.003 0 .002 0 0 0h.003l.004-.002a.41.41 0 00.012-.004h0a.403.403 0 00.03-.014h.002a.442.442 0 00.016-.01l.014-.008h0l.01-.007.009-.006.001-.001m-2.68-2.367L14.103 5.07a.225.225 0 01-.013.013l.103.11h0s0 0 0 0l-9.619 8.953h0a.088.088 0 01-.004.004l-.005.005a.575.575 0 01-.013.01h0l-.002.002-.008.006s0 0 0 0-.001 0 0 0M1.86 11.808s0 0 0 0l.001-.001a.295.295 0 01.008-.018l-.009.02zm2.681 2.367s0 0 0 0h0zM15.818 2.178c.435.405.446 1.088.013 1.49h0l-1.611 1.5-.103-.11.102.11h0a.277.277 0 01-.013.013l1.51-2.893m.102-.11l-.102.11m.102-.11h0l-.102.11m.102-.11l-1.065-.992-.103.11m1.066.992l-1.066-.993m0 0l.102-.11h0l-.102.11zm-1.444-.097h0l.103.11-.103-.11s0 0 0 0zm-1.624 1.513a.289.289 0 01.013-.013l-9.569 9.118a.192.192 0 01.004-.005l.004-.005-.115-.096h0l.002-.003h0l.006-.006a.368.368 0 01.018-.02h.001l.004-.005.003-.002h0l.002-.002 9.614-8.95h0a.303.303 0 01.013-.011zm-9.706 9.065a.332.332 0 01.01-.018h0l.006-.011a.02.02 0 01.002-.002l-.018.031zm13.423-9.088h0l-1.066-.992h0a.364.364 0 00-.24-.092.404.404 0 00-.266.103h0l-.001.001-1.364 1.27 1.572 1.463 1.378-1.283h0a.32.32 0 00-.013-.47zm.102-.11l-1.066-.992 1.066.992zM1.865 11.8h0v-.001.001zm2.45 1.595L13.4 4.938l-1.572-1.464-9.084 8.457 1.572 1.464zm-2.514.89l1.81-.552-1.232-1.148-.578 1.7z" fill="#848484" stroke="#848484" stroke-width=".3"/></svg>