<svg width="56" height="56" viewBox="0 0 56 56" fill="none" xmlns="http://www.w3.org/2000/svg">
<path d="M42.2942 33.2941C38.4019 33.2941 35.2354 36.4606 35.2354 40.3529C35.2354 44.2452 38.4019 47.4118 42.2942 47.4118C46.1872 47.4118 49.353 44.2452 49.353 40.3529C49.353 36.4606 46.1865 33.2941 42.2942 33.2941ZM42.2942 43.8823C40.3478 43.8823 38.7648 42.2994 38.7648 40.3529C38.7648 38.4065 40.3478 36.8235 42.2942 36.8235C44.2406 36.8235 45.8236 38.4065 45.8236 40.3529C45.8236 42.2995 44.2406 43.8823 42.2942 43.8823Z" fill="#000000"/>
<path d="M18.176 33.2941C14.2837 33.2941 11.1172 36.4606 11.1172 40.3529C11.1172 44.2452 14.2837 47.4118 18.176 47.4118C22.0684 47.4118 25.2349 44.2452 25.2349 40.3529C25.2349 36.4606 22.0684 33.2941 18.176 33.2941ZM18.176 43.8823C16.2296 43.8823 14.6466 42.2994 14.6466 40.3529C14.6466 38.4065 16.2296 36.8235 18.176 36.8235C20.1219 36.8235 21.7055 38.4065 21.7055 40.3529C21.7055 42.2995 20.1225 43.8823 18.176 43.8823Z" fill="#000000"/>
<path d="M47.047 13.0895C46.747 12.4936 46.137 12.1177 45.4699 12.1177H36.1758V15.6471H44.3816L49.1869 25.2047L52.3411 23.6188L47.047 13.0895Z" fill="#000000"/>
<path d="M37.0004 38.6471H23.6475V42.1765H37.0004V38.6471Z" fill="#000000"/>
<path d="M12.8822 38.6471H6.76466C5.78991 38.6471 5 39.4371 5 40.4118C5 41.3865 5.79002 42.1764 6.76466 42.1764H12.8823C13.8571 42.1764 14.647 41.3864 14.647 40.4118C14.647 39.437 13.857 38.6471 12.8822 38.6471Z" fill="#000000"/>
<path d="M55.6294 27.8588L52.1582 23.3882C51.8248 22.9576 51.31 22.7058 50.7647 22.7058H37.9411V10.3529C37.9411 9.37816 37.1511 8.58826 36.1765 8.58826H6.76466C5.78991 8.58826 5 9.37827 5 10.3529C5 11.3276 5.79002 12.1176 6.76466 12.1176H34.4117V24.4705C34.4117 25.4452 35.2017 26.2351 36.1764 26.2351H49.9005L52.4705 29.5457V38.6469H47.5881C46.6134 38.6469 45.8235 39.4369 45.8235 40.4116C45.8235 41.3863 46.6135 42.1762 47.5881 42.1762H54.2352C55.2099 42.1762 55.9998 41.3862 55.9999 40.4116V28.9412C55.9999 28.5494 55.8693 28.1682 55.6294 27.8588Z" fill="#000000"/>
<path d="M12.7642 29.7059H4.64649C3.67174 29.7059 2.88184 30.4959 2.88184 31.4706C2.88184 32.4453 3.67185 33.2352 4.64649 33.2352H12.7641C13.7388 33.2352 14.5287 32.4452 14.5287 31.4706C14.5289 30.4959 13.7388 29.7059 12.7642 29.7059Z" fill="#000000"/>
<path d="M16.8235 22.7646H1.76466C0.790016 22.7646 0 23.5547 0 24.5294C0 25.5042 0.790016 26.2941 1.76466 26.2941H16.8235C17.7983 26.2941 18.5882 25.5041 18.5882 24.5294C18.5882 23.5548 17.7983 22.7646 16.8235 22.7646Z" fill="#000000"/>
<path d="M19.7054 15.8235H4.64649C3.67174 15.8235 2.88184 16.6135 2.88184 17.5881C2.88184 18.5629 3.67185 19.3528 4.64649 19.3528H19.7054C20.6801 19.3528 21.47 18.5628 21.47 17.5881C21.4701 16.6135 20.6801 15.8235 19.7054 15.8235Z" fill="#000000"/>
</svg>
