<svg width="28" height="28" viewBox="0 0 28 28" fill="none" xmlns="http://www.w3.org/2000/svg">
<path d="M24.5776 19.321C24.9495 19.321 25.2749 19.0685 25.3706 18.709L27.9727 8.90943C28.0357 8.67188 27.9889 8.41788 27.8452 8.21857C27.7014 8.01905 27.4758 7.89429 27.2304 7.87912L4.77964 6.49228L4.17081 2.74448C4.12894 2.48706 3.96702 2.26468 3.7346 2.1457L1.19419 0.846013C0.79087 0.639866 0.296546 0.799443 0.0901861 1.20276C-0.116174 1.60608 0.0436163 2.10019 0.446937 2.30655L2.61799 3.41739L5.0676 18.4975L4.65574 21.0962C3.11381 21.36 1.93632 22.7061 1.93632 24.323C1.93632 26.1287 3.40455 27.6068 5.20924 27.6068C6.88041 27.6068 8.26234 26.321 8.45738 24.7351H19.6572C19.8522 26.321 21.2342 27.6068 22.9053 27.6068C24.71 27.6068 26.1783 26.1332 26.1783 24.3275C26.1783 22.5219 24.71 21.0597 22.9053 21.0597C21.5418 21.0597 20.3709 21.8913 19.8796 23.0944H8.23499C7.88081 22.2194 7.17329 21.5559 6.29508 21.2457L6.59907 19.321H24.5776ZM22.9053 22.689C23.8053 22.689 24.5376 23.4219 24.5376 24.323C24.5376 25.224 23.8053 25.9572 22.9053 25.9572C22.0056 25.9572 21.2733 25.224 21.2733 24.323C21.2733 23.4219 22.0056 22.689 22.9053 22.689ZM6.84132 24.323C6.84132 25.224 6.10923 25.9572 5.20924 25.9572C4.30924 25.9572 3.57694 25.224 3.57694 24.323C3.57694 23.4219 4.30924 22.689 5.20924 22.689C6.10923 22.689 6.84132 23.4219 6.84132 24.323ZM5.04923 8.15491L26.13 9.45823L23.9468 17.6804H6.59608L5.04923 8.15491Z" fill="#fff"/>
</svg>
