<svg width="17" height="16" viewBox="0 0 17 16" fill="none" xmlns="http://www.w3.org/2000/svg">
<path d="M1.86132 11.8072L1.8573 11.8155L1.85423 11.8245L0.868101 14.7248L0.867957 14.7252C0.846351 14.7894 0.844172 14.8582 0.861803 14.9237C0.879407 14.989 0.915686 15.0471 0.965055 15.0923C1.01434 15.1373 1.07491 15.168 1.13967 15.1821C1.20441 15.1962 1.27203 15.1936 1.33546 15.1743L1.33563 15.1742L4.42904 14.2305L4.43011 14.2301C4.43546 14.2284 4.43989 14.2268 4.44148 14.2262L4.4416 14.2261C4.44362 14.2254 4.44294 14.2257 4.44181 14.2261L4.44393 14.2253L4.44762 14.2241C4.45045 14.2231 4.45472 14.2215 4.45957 14.2196L4.45958 14.2196C4.46563 14.2171 4.47172 14.2144 4.4747 14.213C4.4818 14.21 4.48764 14.207 4.49035 14.2056L4.49051 14.2056L4.49151 14.2051C4.49819 14.2016 4.5041 14.1982 4.50807 14.1959C4.51383 14.1927 4.51863 14.1897 4.52176 14.1878L4.52207 14.1876C4.52569 14.1852 4.52907 14.183 4.53213 14.1809C4.53535 14.1786 4.53822 14.1766 4.54065 14.1748L4.54217 14.1737M1.86132 11.8072L14.1035 5.07047C14.0996 5.07474 14.0956 5.079 14.0913 5.08303L14.1935 5.19282L14.1933 5.19298C14.1933 5.19299 14.1933 5.193 14.1933 5.19302L4.5754 14.1465L4.57519 14.1467C4.57379 14.148 4.57244 14.1492 4.57122 14.1502C4.56895 14.1522 4.56711 14.1537 4.56617 14.1545C4.56238 14.1578 4.55805 14.1614 4.55329 14.1653L4.55332 14.1653L4.5507 14.1674L4.54316 14.173C4.54304 14.1731 4.54294 14.1732 4.54284 14.1732C4.54209 14.1738 4.542 14.1738 4.54217 14.1737M1.86132 11.8072C1.8615 11.8068 1.86166 11.8065 1.86182 11.8061L1.86198 11.8058C1.86402 11.8006 1.86656 11.7944 1.86957 11.788L1.86132 11.8072ZM4.54217 14.1737C4.5423 14.1736 4.54256 14.1734 4.54283 14.1732L4.54217 14.1737ZM15.8182 2.17782C16.2532 2.58279 16.2635 3.26572 15.8312 3.66824L15.8312 3.66825L14.2197 5.16849L14.1173 5.05887L14.2195 5.16866L14.2196 5.16855C14.2148 5.17307 14.2101 5.17714 14.2059 5.1806L15.716 2.28761M15.8182 2.17782L15.716 2.28761M15.8182 2.17782L15.8182 2.17782L15.716 2.28761M15.8182 2.17782L14.7529 1.18609L14.6502 1.29546M15.716 2.28761L14.6502 1.29546M14.6502 1.29546L14.7524 1.18567L14.7526 1.18587L14.6502 1.29546ZM13.2061 1.19811L13.2065 1.19776L13.3087 1.30755L13.2057 1.19851C13.2058 1.19838 13.206 1.19824 13.2061 1.19811ZM11.5821 2.71065C11.5857 2.70689 11.59 2.70252 11.5948 2.69809L2.02608 11.8163C2.02733 11.8146 2.02864 11.8129 2.02998 11.8112C2.03138 11.8095 2.0328 11.8077 2.03423 11.806L1.91878 11.7103L1.91893 11.7101L1.92147 11.7069L1.92129 11.7068L1.92679 11.7006C1.93373 11.6928 1.94035 11.6862 1.94539 11.6813L1.94618 11.6805L1.94628 11.6802L1.94621 11.6802L1.95019 11.6764L1.95267 11.6741L1.95262 11.674L1.95519 11.6718L11.5688 2.72231L11.569 2.72212C11.5736 2.71787 11.578 2.71402 11.5821 2.71065ZM1.87552 11.7761C1.87782 11.7715 1.88123 11.7649 1.88548 11.7576L1.8855 11.7576C1.88837 11.7527 1.89088 11.7488 1.89236 11.7465C1.8934 11.7449 1.89369 11.7445 1.89372 11.7445L1.87552 11.7761ZM15.2991 2.68819L15.2991 2.68816L14.2333 1.69603L14.2333 1.69604L14.2327 1.69547C14.2022 1.66684 14.1654 1.64355 14.1239 1.62748C14.0826 1.61144 14.0379 1.60304 13.9925 1.60302C13.9422 1.60332 13.8927 1.61287 13.847 1.63089C13.8012 1.64895 13.7604 1.675 13.7268 1.70699L13.7268 1.707L13.7256 1.70813L12.362 2.97742L13.934 4.44079L15.312 3.15788L15.3121 3.15787C15.4415 3.03737 15.4437 2.82273 15.2991 2.68819ZM15.4013 2.57837L14.3355 1.58624L15.4013 2.57837ZM1.86464 11.8002L1.865 11.7995L1.86524 11.799C1.86519 11.7991 1.86494 11.7996 1.86464 11.8002ZM4.31578 13.3946L13.4003 4.93763L11.8284 3.47432L2.74395 11.9313L4.31578 13.3946ZM1.80101 14.285L3.61158 13.7326L2.37914 12.5853L1.80101 14.285Z" fill="#848484" stroke="#848484" stroke-width="0.3"/>
</svg>
