<svg width="244" height="61" viewBox="0 0 244 61" fill="none" xmlns="http://www.w3.org/2000/svg">
<path d="M173.371 2.276H70.9019L63.0482 10.6516H22.4832L8.79088 18.3705L1.63428 50.6977L12.0478 57.806H222.966L235.232 50.6977L242.388 18.3589L233.402 10.6401H181.072L173.371 2.276Z" fill="black"/>
<path d="M223.206 58.8083H11.7644L0.555664 51.1585L7.96281 17.6908L22.2433 9.63778H62.6449L70.4987 1.26221H173.774L181.464 9.63778H233.728L243.445 17.9788L236.059 51.3659L223.206 58.8083ZM12.3199 56.8037H222.715L234.393 50.041L241.32 18.7622L233.064 11.6654H180.669L172.979 3.28986H71.2939L63.4401 11.6654H22.7117L9.61852 19.0387L2.71245 50.2369L12.3199 56.8037Z" fill="#06E9FB"/>
<path d="M78.0586 15.7783L77.9605 13.4511L76.7732 15.7783H76.2503L75.6839 13.382L74.9323 15.7783H74.0718L75.2046 12.1493H76.1305L76.6752 14.4534L77.8516 12.1493H78.7557L78.9191 15.7783H78.0586Z" fill="white"/>
<path d="M83.4289 12.1378L84.0606 15.7669H83.1456L83.0585 14.9604H82.0128L81.6642 15.7669H80.771L82.5139 12.1378H83.4289ZM82.8298 13.071L82.2306 14.465H82.9931L82.8298 13.071Z" fill="white"/>
<path d="M86.1411 15.7783L86.6422 12.1493H88.9188L88.8208 12.8751H87.4265L87.0234 15.7783H86.1411Z" fill="white"/>
<path d="M92.8839 12.1378L93.5157 15.7669H92.6007L92.5136 14.9604H91.4679L91.1193 15.7669H90.2261L91.9689 12.1378H92.8839ZM92.2848 13.071L91.6857 14.465H92.4482L92.2848 13.071Z" fill="white"/>
<path d="M96.7834 12.783C96.6201 12.783 96.4676 12.806 96.3151 12.8521C96.1626 12.8982 95.9992 12.9673 95.8467 13.0595L95.9883 12.253C96.1408 12.1954 96.2933 12.1608 96.4675 12.1263C96.6418 12.1032 96.827 12.0802 97.0449 12.0802C97.1211 12.0802 97.1974 12.0802 97.2845 12.0917C97.3717 12.1032 97.4588 12.1263 97.5459 12.1493C97.6331 12.1724 97.7093 12.2069 97.7965 12.253C97.8727 12.2991 97.949 12.3452 98.0034 12.4143C98.0688 12.4834 98.1124 12.5525 98.145 12.6447C98.1777 12.7369 98.1995 12.8406 98.1995 12.9558C98.1995 13.0825 98.1777 13.1977 98.145 13.2899C98.1124 13.3936 98.0579 13.4742 97.9925 13.5549C97.9272 13.6355 97.8509 13.6931 97.7638 13.7507C97.6767 13.8083 97.5895 13.8429 97.4915 13.8774C97.6876 13.935 97.8401 14.0387 97.9381 14.1655C98.0361 14.3037 98.0906 14.465 98.0906 14.6378C98.0906 14.776 98.0688 14.9028 98.0252 15.018C97.9817 15.1332 97.9272 15.2254 97.8509 15.3175C97.7747 15.4097 97.6875 15.4788 97.5895 15.5364C97.4915 15.594 97.3826 15.6516 97.2627 15.6862C97.1429 15.7207 97.0231 15.7553 96.8924 15.7784C96.7617 15.8014 96.6309 15.8014 96.4893 15.8014C96.3695 15.8014 96.2606 15.7899 96.1517 15.7668C96.0427 15.7438 95.9447 15.7207 95.8467 15.6977C95.7486 15.6631 95.6615 15.6401 95.5852 15.594C95.509 15.5595 95.4436 15.5249 95.3892 15.4788L95.509 14.7415C95.607 14.8106 95.6942 14.8567 95.7922 14.9028C95.8793 14.9489 95.9665 14.9834 96.0536 15.0065C96.1408 15.0295 96.2061 15.0525 96.2824 15.0641C96.3477 15.0756 96.4131 15.0871 96.4675 15.0871C96.5765 15.0871 96.6745 15.0756 96.7617 15.0641C96.8488 15.0525 96.9251 15.018 96.9904 14.9834C97.0558 14.9489 97.0993 14.9028 97.132 14.8452C97.1647 14.7876 97.1865 14.7184 97.1865 14.6493C97.1865 14.5687 97.1756 14.488 97.1429 14.4304C97.1211 14.3728 97.0776 14.3267 97.0231 14.2922C96.9686 14.2576 96.9033 14.2346 96.8161 14.2115C96.729 14.2 96.62 14.1885 96.5002 14.1885H96.2715L96.3586 13.5433H96.7399C96.8488 13.5433 96.9359 13.5318 97.0231 13.5088C97.0993 13.4857 97.1647 13.4627 97.2192 13.4166C97.2736 13.3705 97.3063 13.336 97.3281 13.2784C97.3499 13.2323 97.3608 13.1747 97.3608 13.1171C97.3608 12.9788 97.3172 12.8867 97.2192 12.829C97.1102 12.8175 96.9686 12.783 96.7834 12.783Z" fill="white"/>
<path d="M100.291 15.7783L100.802 12.1493H101.685L101.38 14.3382L103.362 12.1493H104.168L103.656 15.7783H102.785L103.09 13.5894L101.107 15.7783H100.291Z" fill="white"/>
<path d="M107.578 12.1378L107.382 13.5318H109.005L109.201 12.1378H110.084L109.561 15.7669H108.689L108.896 14.3037H107.273L107.066 15.7669H106.195L106.707 12.1378H107.578Z" fill="white"/>
<path d="M115.868 13.5778H117.218C117.207 13.4626 117.175 13.359 117.131 13.2668C117.088 13.1746 117.022 13.094 116.957 13.0364C116.881 12.9672 116.804 12.9212 116.706 12.8866C116.619 12.852 116.521 12.829 116.412 12.829C116.205 12.829 116.009 12.8636 115.813 12.9212C115.617 12.9903 115.421 13.094 115.214 13.2437L115.367 12.3221C115.443 12.276 115.53 12.2414 115.606 12.2184C115.682 12.1838 115.77 12.1608 115.857 12.1493C115.944 12.1262 116.031 12.1147 116.129 12.1032C116.227 12.0917 116.336 12.0917 116.456 12.0917C116.608 12.0917 116.75 12.1032 116.902 12.1378C117.044 12.1723 117.186 12.2184 117.305 12.276C117.436 12.3336 117.545 12.4143 117.654 12.5064C117.763 12.5986 117.85 12.7023 117.926 12.829C118.003 12.9557 118.068 13.094 118.112 13.2437C118.155 13.3935 118.177 13.5663 118.177 13.7507C118.177 13.8659 118.166 14.0041 118.133 14.1539C118.112 14.3037 118.068 14.4534 118.003 14.6147C117.937 14.7645 117.85 14.9143 117.752 15.064C117.643 15.2138 117.512 15.3405 117.349 15.4557C117.186 15.5709 116.99 15.6631 116.772 15.7322C116.543 15.8013 116.282 15.8359 115.987 15.8359C115.802 15.8359 115.617 15.8244 115.443 15.8013C115.268 15.7783 115.094 15.7437 114.92 15.7092L115.062 14.9719C115.138 14.9949 115.225 15.0179 115.301 15.041C115.388 15.064 115.475 15.0755 115.552 15.0871C115.639 15.0986 115.715 15.1101 115.791 15.1101C115.868 15.1216 115.933 15.1216 115.998 15.1216C116.129 15.1216 116.26 15.0986 116.39 15.064C116.521 15.0295 116.641 14.9719 116.75 14.8912C116.859 14.8221 116.946 14.7299 117.022 14.6147C117.098 14.511 117.153 14.3843 117.186 14.2345H115.78L115.868 13.5778Z" fill="white"/>
<path d="M122.131 15.7783L121.717 13.5318L120.65 15.7783H119.789L121.641 12.0917H122.185L122.992 15.7783H122.131Z" fill="white"/>
<path d="M127.806 12.1377L127.719 12.7829H126.325L126.216 13.5663H127.425L127.338 14.2115H126.118L125.998 15.1101H127.686L127.599 15.7553H125.018L125.519 12.1262H127.806V12.1377Z" fill="white"/>
<path d="M129.789 15.7783L130.301 12.1493H131.183L130.976 13.4972C131.03 13.4972 131.085 13.4857 131.128 13.4742C131.172 13.4627 131.226 13.4281 131.27 13.382C131.314 13.3359 131.368 13.2783 131.433 13.1977C131.488 13.117 131.564 13.0133 131.64 12.8866C131.738 12.7368 131.836 12.6101 131.913 12.5064C132 12.4143 132.087 12.3336 132.185 12.276C132.283 12.2184 132.381 12.1839 132.501 12.1723C132.621 12.1493 132.762 12.1493 132.926 12.1493H133.089L132.947 12.9673H132.839C132.773 12.9673 132.708 12.9788 132.653 12.9903C132.599 13.0018 132.555 13.0249 132.512 13.0594C132.468 13.094 132.425 13.1401 132.381 13.1977C132.337 13.2553 132.294 13.3244 132.239 13.4166C132.196 13.4857 132.152 13.5548 132.109 13.6124C132.065 13.67 132.022 13.7161 131.978 13.7622C131.934 13.8083 131.88 13.8428 131.826 13.8659C131.771 13.8889 131.706 13.912 131.64 13.935C131.695 13.9465 131.749 13.958 131.793 13.9926C131.836 14.0157 131.891 14.0502 131.934 14.0963C131.978 14.1424 132.022 14.1885 132.065 14.2576C132.109 14.3152 132.152 14.3958 132.196 14.4765L132.893 15.8129H131.847L131.412 14.8221C131.368 14.7184 131.324 14.6378 131.281 14.5686C131.248 14.511 131.205 14.4534 131.161 14.4189C131.118 14.3843 131.074 14.3613 131.03 14.3498C130.987 14.3382 130.921 14.3382 130.856 14.3382L130.649 15.8129H129.789V15.7783Z" fill="white"/>
<path d="M135.802 15.7783L136.205 12.8751H135.094L135.203 12.1493H138.296L138.198 12.8751H137.087L136.673 15.7783H135.802Z" fill="white"/>
<path d="M140.083 15.7783L140.584 12.1493H141.869C142.098 12.1493 142.283 12.1839 142.435 12.2415C142.588 12.2991 142.719 12.3797 142.806 12.4834C142.904 12.5871 142.969 12.7023 143.013 12.8405C143.056 12.9788 143.078 13.117 143.078 13.2553C143.078 13.4051 143.056 13.5548 143.013 13.7046C142.969 13.8544 142.893 13.9811 142.795 14.0963C142.697 14.2115 142.566 14.3037 142.414 14.3728C142.261 14.4419 142.065 14.4765 141.847 14.4765H141.139L140.965 15.7668H140.083V15.7783ZM141.401 12.6677L141.226 13.9465H141.477C141.586 13.9465 141.684 13.935 141.771 13.912C141.858 13.8889 141.934 13.8428 142 13.7968C142.065 13.7392 142.109 13.6816 142.141 13.5894C142.174 13.5087 142.196 13.4051 142.196 13.2898C142.196 13.1977 142.185 13.117 142.152 13.0479C142.12 12.9673 142.076 12.9097 142.021 12.8521C141.967 12.7945 141.891 12.7484 141.804 12.7138C141.716 12.6792 141.618 12.6677 141.499 12.6677H141.401Z" fill="white"/>
<path d="M147.119 12.0917C147.359 12.0917 147.577 12.1262 147.784 12.2069C147.991 12.2875 148.165 12.3912 148.317 12.5295C148.47 12.6677 148.59 12.8405 148.666 13.0479C148.753 13.2553 148.797 13.4857 148.797 13.7391C148.797 14.0387 148.753 14.3037 148.655 14.5571C148.568 14.8106 148.426 15.0295 148.263 15.2138C148.089 15.3981 147.882 15.5479 147.642 15.6516C147.402 15.7553 147.119 15.8129 146.825 15.8129C146.694 15.8129 146.575 15.8014 146.433 15.7783C146.302 15.7553 146.172 15.7092 146.041 15.6631C145.91 15.6055 145.79 15.5364 145.681 15.4557C145.572 15.3751 145.463 15.2714 145.387 15.1447C145.3 15.0179 145.235 14.8797 145.18 14.7184C145.126 14.5571 145.104 14.3728 145.104 14.1654C145.104 13.935 145.126 13.7276 145.18 13.5318C145.235 13.3359 145.3 13.1631 145.398 13.0133C145.485 12.8636 145.594 12.7253 145.725 12.6101C145.856 12.4949 145.986 12.4027 146.139 12.3221C146.291 12.2414 146.444 12.1838 146.618 12.1493C146.782 12.1147 146.945 12.0917 147.119 12.0917ZM147.087 12.9096C146.912 12.9096 146.76 12.9442 146.629 13.0249C146.498 13.1055 146.389 13.1977 146.291 13.3129C146.204 13.4281 146.139 13.5663 146.095 13.7046C146.052 13.8428 146.03 13.9926 146.03 14.1193C146.03 14.2345 146.052 14.3497 146.084 14.4534C146.117 14.5571 146.172 14.6493 146.237 14.7299C146.302 14.8106 146.389 14.8797 146.487 14.9258C146.585 14.9719 146.705 14.9949 146.836 14.9949C146.999 14.9949 147.152 14.9603 147.272 14.8912C147.402 14.8221 147.511 14.7299 147.598 14.6262C147.686 14.511 147.751 14.3843 147.805 14.2461C147.849 14.1078 147.882 13.958 147.882 13.8083C147.882 13.67 147.86 13.5548 147.827 13.4396C147.784 13.3244 147.729 13.2322 147.664 13.1516C147.598 13.0709 147.511 13.0133 147.413 12.9673C147.315 12.9327 147.206 12.9096 147.087 12.9096Z" fill="white"/>
<path d="M152.239 12.1378L152.043 13.5318H153.666L153.862 12.1378H154.744L154.221 15.7669H153.35L153.557 14.3037H151.934L151.727 15.7669H150.855L151.367 12.1378H152.239Z" fill="white"/>
<path d="M156.759 15.7783L157.271 12.1493H158.154L157.849 14.3382L159.831 12.1493H160.637L160.125 15.7783H159.254L159.559 13.5894L157.576 15.7783H156.759Z" fill="white"/>
<path d="M162.652 15.7783L163.164 12.1493H164.047L163.84 13.4972C163.894 13.4972 163.949 13.4857 163.992 13.4742C164.036 13.4627 164.09 13.4281 164.134 13.382C164.177 13.3359 164.232 13.2783 164.297 13.1977C164.352 13.117 164.428 13.0133 164.504 12.8866C164.602 12.7368 164.7 12.6101 164.776 12.5064C164.864 12.4143 164.951 12.3336 165.049 12.276C165.147 12.2184 165.245 12.1839 165.365 12.1723C165.484 12.1493 165.626 12.1493 165.789 12.1493H165.953L165.811 12.9673H165.702C165.637 12.9673 165.572 12.9788 165.517 12.9903C165.463 13.0018 165.419 13.0249 165.376 13.0594C165.332 13.094 165.288 13.1401 165.245 13.1977C165.201 13.2553 165.158 13.3244 165.103 13.4166C165.06 13.4857 165.016 13.5548 164.973 13.6124C164.929 13.67 164.885 13.7161 164.842 13.7622C164.798 13.8083 164.744 13.8428 164.689 13.8659C164.635 13.8889 164.569 13.912 164.504 13.935C164.559 13.9465 164.613 13.958 164.657 13.9926C164.7 14.0157 164.755 14.0502 164.798 14.0963C164.842 14.1424 164.885 14.1885 164.929 14.2576C164.973 14.3152 165.016 14.3958 165.06 14.4765L165.757 15.8129H164.711L164.275 14.8221C164.232 14.7184 164.188 14.6378 164.145 14.5686C164.112 14.511 164.068 14.4534 164.025 14.4189C163.981 14.3843 163.938 14.3613 163.894 14.3498C163.851 14.3382 163.785 14.3382 163.72 14.3382L163.513 15.8129H162.652V15.7783Z" fill="white"/>
<path d="M167.805 15.7783L168.317 12.1493H169.199L168.894 14.3382L170.876 12.1493H171.683L171.171 15.7783H170.299L170.604 13.5894L168.622 15.7783H167.805Z" fill="white"/>
<path d="M95.977 26.9996C95.4542 26.3199 94.7462 25.9742 93.8529 25.9742H79.6487H78.1672H59.9544L59.1701 30.1102H63.4837L61.5665 40.26H50.7172L53.4187 25.9742H45.2054L41.7197 44.3959H60.7822H61.414H68.9845L71.686 30.1102H77.3829L74.6815 44.3959H82.8947L84.2236 37.3798H85.4981C85.8467 37.3913 86.119 37.518 86.326 37.783C86.4785 37.9904 86.5547 38.2208 86.5547 38.4858C86.5547 38.5664 86.5438 38.6471 86.5329 38.7277L86.0863 42.7715C86.0645 42.8867 86.0536 43.0134 86.0536 43.1171C86.0536 43.4166 86.1408 43.6816 86.3042 43.912C86.5329 44.2231 86.8706 44.3844 87.2954 44.3844H94.8769L94.9313 44.2577C94.4738 44.0272 94.256 43.6701 94.256 43.1632C94.256 43.0365 94.2669 42.9097 94.2995 42.7715C94.3322 42.1724 94.3649 41.5618 94.4085 40.9512C94.452 40.3406 94.4956 39.73 94.5174 39.1309V38.9466C94.5174 38.0365 94.2124 37.3222 93.5915 36.8037C94.7135 36.1125 95.3997 35.1448 95.6394 33.8775L96.4781 29.4189C96.5217 29.177 96.5435 28.9351 96.5435 28.7047C96.5435 28.0941 96.3583 27.5065 95.977 26.9996ZM87.8945 31.4696L87.8074 31.9074C87.7311 32.2876 87.546 32.5987 87.241 32.8636C86.936 33.1286 86.6092 33.2553 86.2606 33.2553H84.9861L85.5853 30.1217H86.8597C87.2083 30.1217 87.4806 30.2484 87.6876 30.5134C87.8401 30.7208 87.9163 30.9397 87.9163 31.2047C87.9272 31.2853 87.9163 31.3659 87.8945 31.4696Z" fill="#06E9FB"/>
<path d="M106.075 25.9742H113.373L116.172 44.3959H107.97L107.654 42.3222H102.36L101.315 44.3959H96.293L106.075 25.9742ZM107.022 38.1977L106.412 34.2692L104.43 38.1977H107.022Z" fill="#06E9FB"/>
<path d="M124.331 25.9742H136.727C137.631 25.9742 138.339 26.3199 138.851 26.9996C139.232 27.5065 139.417 28.0941 139.417 28.7392C139.417 28.9696 139.396 29.2001 139.352 29.4535L138.818 32.2761H130.605L130.758 31.4696C130.779 31.3775 130.79 31.2738 130.79 31.1931C130.79 30.9512 130.714 30.7208 130.562 30.5134C130.355 30.2484 130.082 30.1217 129.734 30.1217C129.374 30.1217 129.058 30.26 128.753 30.5249C128.459 30.7899 128.274 31.1125 128.198 31.4696L126.793 38.912C126.771 39.0042 126.76 39.1079 126.76 39.1885C126.76 39.442 126.836 39.6724 126.989 39.8683C127.185 40.1332 127.468 40.26 127.817 40.26C128.165 40.26 128.492 40.1332 128.786 39.8683C129.091 39.6033 129.276 39.2922 129.342 38.912L129.494 38.1056H128.22L128.775 35.1908H138.263L137.174 40.9282C136.988 41.8844 136.509 42.7024 135.736 43.3821C134.962 44.0618 134.124 44.3959 133.23 44.3959H120.834C119.93 44.3959 119.222 44.0503 118.71 43.3706C118.329 42.8752 118.133 42.2991 118.133 41.654C118.133 41.4236 118.155 41.1816 118.209 40.9282L120.377 29.4535C120.551 28.4973 121.03 27.6793 121.804 26.9996C122.577 26.3199 123.427 25.9742 124.331 25.9742Z" fill="#F843D6"/>
<path d="M147.696 25.9742H154.995L157.794 44.3959H149.592L149.276 42.3222H143.982L142.936 44.3959H137.915L147.696 25.9742ZM148.644 38.1977L148.034 34.2692L146.052 38.1977H148.644Z" fill="#F843D6"/>
<path d="M170.877 25.9742L173.371 32.2761L178.262 25.9742H186.464L182.979 44.3959H174.776L176.781 33.8083L172.053 39.2461L169.395 33.8083L167.391 44.3959H159.178L162.663 25.9742H170.877Z" fill="#F843D6"/>
<path d="M223.903 26.9996C223.38 26.3199 222.672 25.9742 221.779 25.9742H206.093L204.829 32.6447H194.797L195.276 30.1102H203.893L204.677 25.9742H187.848L184.362 44.3959H201.191L201.976 40.2599H193.359L194.013 36.7807H204.045L202.607 44.4074H210.821L212.149 37.3913H213.424C213.773 37.4028 214.045 37.5295 214.252 37.7945C214.404 38.0019 214.47 38.2323 214.47 38.4973C214.47 38.5779 214.459 38.6586 214.448 38.7392L214.001 42.783C213.98 42.8982 213.969 43.0249 213.969 43.1286C213.969 43.4282 214.056 43.6931 214.219 43.9235C214.448 44.2346 214.786 44.3959 215.21 44.3959H222.792L222.846 44.2692C222.389 44.0387 222.171 43.6816 222.171 43.1747C222.171 43.048 222.182 42.9212 222.215 42.783C222.247 42.1839 222.28 41.5733 222.323 40.9627C222.367 40.3521 222.411 39.7415 222.432 39.1424V38.9581C222.432 38.048 222.127 37.3337 221.506 36.8153C222.639 36.124 223.315 35.1563 223.554 33.889L224.393 29.4305C224.437 29.1885 224.458 28.9466 224.458 28.7162C224.469 28.0941 224.284 27.5065 223.903 26.9996ZM215.82 31.4696L215.733 31.9074C215.657 32.2876 215.472 32.5987 215.167 32.8636C214.862 33.1286 214.535 33.2553 214.186 33.2553H212.912L213.511 30.1217H214.786C215.134 30.1217 215.406 30.2484 215.613 30.5134C215.766 30.7208 215.842 30.9397 215.842 31.2047C215.853 31.2853 215.842 31.3659 215.82 31.4696Z" fill="#F843D6"/>
<path d="M41.4584 25.9742C40.478 27.0456 39.4214 28.0479 38.2777 28.9581C37.0577 29.9143 35.8595 30.8936 34.6395 31.8613C34.5305 31.942 34.4325 32.0456 34.3454 32.1148C33.9859 31.6309 33.6482 31.1701 33.2887 30.6977C33.365 30.6286 33.4304 30.571 33.4957 30.5134C34.9009 29.3844 36.2952 28.2553 37.7004 27.1378C38.2341 26.7115 38.7787 26.3314 39.3343 25.9627H35.6525H29.3237C29.7595 26.4235 30.1625 26.9074 30.522 27.4258C31.5677 28.9466 32.6461 30.4443 33.7136 31.9535C34.2037 32.6447 34.6939 33.336 35.1841 34.0387C35.2168 34.0848 35.2495 34.1309 35.2821 34.1655C35.7179 33.8198 36.1536 33.4857 36.5784 33.1401C36.6764 33.0595 36.7854 32.9788 36.8943 32.9097C37.0686 32.783 37.2102 32.7714 37.2973 32.9212C37.4062 33.094 37.3518 33.2438 37.1557 33.3936C36.7091 33.7507 36.2625 34.1079 35.7832 34.488C35.8812 34.6148 35.9575 34.7185 36.0446 34.8337C36.2625 35.1332 36.2734 35.4903 36.1209 35.9051C36.0882 35.9857 36.0991 36.1009 36.1427 36.1585C36.72 36.988 37.2973 37.806 37.8964 38.624C37.94 38.6816 38.038 38.7277 38.1252 38.7277C38.648 38.7507 38.9748 39.1539 38.8768 39.6724C38.7787 40.1908 38.3104 40.6632 37.7984 40.7553C37.2646 40.859 36.8616 40.5479 36.8507 40.041C36.8507 40.018 36.8398 39.9949 36.8507 39.9834C37.0141 39.6148 36.7962 39.442 36.6437 39.2231C36.1318 38.4973 35.6198 37.7714 35.1079 37.0456C35.0425 36.9535 34.9771 36.8959 34.8246 36.9189C34.4107 36.9765 34.1057 36.8498 33.8987 36.5503C33.8225 36.4466 33.7462 36.3314 33.6591 36.1931C33.1907 36.5733 32.755 36.9304 32.3084 37.2876C32.0905 37.4604 31.8836 37.4604 31.8182 37.2876C31.7529 37.1148 31.8509 36.9765 32.0143 36.8383C32.5154 36.435 33.0164 36.0433 33.5175 35.6286C33.5066 35.594 33.5066 35.571 33.4957 35.5595C32.962 34.8106 32.4282 34.0618 31.8945 33.3129C30.6418 31.5272 29.3564 29.753 28.1364 27.9327C27.7225 27.3221 27.4066 26.6539 27.1452 25.9512H24.1823L21.3502 40.9051C21.2957 41.1585 21.2739 41.4005 21.2739 41.6309C21.2739 42.2876 21.47 42.8521 21.8512 43.3475C22.3632 44.0272 23.0712 44.3728 23.9754 44.3728H36.3823C37.2864 44.3728 38.1143 44.0387 38.8877 43.359C39.6611 42.6793 40.1404 41.8613 40.3255 40.9051L43.1577 25.9512H41.4584V25.9742ZM30.5764 37.4834C30.413 37.6102 30.2387 37.6102 30.1407 37.4719C29.9555 37.2185 29.7704 36.965 29.5961 36.7C29.5198 36.5963 29.4545 36.4811 29.3455 36.3083C29.2039 36.4466 29.0841 36.5618 28.9643 36.6655C28.5939 36.9765 28.2018 37.1148 27.7987 37.0572C27.668 37.0341 27.5809 37.0802 27.472 37.1724C26.4698 37.9788 25.4568 38.7853 24.4655 39.5917C24.3784 39.6609 24.2912 39.7761 24.2695 39.8682C24.0843 40.4673 23.5287 40.9051 22.9732 40.9051C22.4286 40.9051 22.1127 40.4673 22.2543 39.9143C22.4068 39.3267 22.9296 38.9005 23.5396 38.8774C23.6159 38.8774 23.7139 38.8314 23.7793 38.7853C24.825 37.9558 25.8707 37.1148 26.9055 36.2738C26.96 36.2277 27.0254 36.147 27.0362 36.0894C27.1016 35.5479 27.4284 35.1217 27.9077 34.7761C27.973 34.73 28.0384 34.6724 28.1255 34.6032C27.8641 34.2461 27.6027 33.889 27.3521 33.5318C27.2214 33.336 27.2977 33.1286 27.5373 33.0019C27.7007 32.9212 27.7987 32.9558 27.875 33.071C28.1582 33.4973 28.4523 33.912 28.7682 34.3728C29.5198 33.7738 30.2279 33.2092 30.9468 32.6332C31.2736 33.094 31.6004 33.5664 31.9489 34.0618C31.2409 34.6263 30.5329 35.1908 29.803 35.7668C30.0754 36.1355 30.3259 36.5042 30.5873 36.8613C30.62 36.9074 30.6636 36.965 30.6962 37.0226C30.7834 37.1724 30.7398 37.3567 30.5764 37.4834Z" fill="#06E9FB"/>
</svg>
